<svg width="48" height="48" viewBox="0 0 48 48" fill="none" xmlns="http://www.w3.org/2000/svg">
<g clip-path="url(#clip0)">
<path d="M48.0309 0H0.134918V48.1658H48.0309V0Z" fill="url(#paint0_linear)"/>
<path d="M16.7245 29.0549V28.5764C17.024 28.4983 17.2389 28.4234 17.3691 28.3518C17.4993 28.2802 17.6002 28.189 17.6718 28.0784C17.7434 27.9677 17.7955 27.8082 17.8281 27.5999C17.8606 27.3915 17.8769 27.0627 17.8769 26.6135V18.1663C17.8769 17.7105 17.8606 17.3817 17.8281 17.1799C17.7955 16.9716 17.7402 16.8121 17.662 16.7014C17.5904 16.5907 17.4928 16.5028 17.3691 16.4377C17.2454 16.3661 17.0305 16.288 16.7245 16.2034V15.7248H21.0019C22.2324 15.7248 23.2382 15.8616 24.0195 16.135C24.8072 16.4019 25.4713 16.7991 26.0116 17.3264C26.552 17.8538 26.9557 18.5113 27.2226 19.2991C27.4895 20.0803 27.623 21.0146 27.623 22.1018C27.623 23.2021 27.496 24.1721 27.2421 25.012C26.9947 25.8453 26.6301 26.5452 26.1484 27.1116C25.7317 27.6064 25.2206 28.0133 24.6152 28.3323C24.1139 28.5927 23.5344 28.7782 22.8769 28.8889C22.2193 28.9996 21.3469 29.0549 20.2597 29.0549H16.7245ZM19.7031 28.1467C19.9635 28.1728 20.3476 28.1858 20.8554 28.1858C21.4023 28.1858 21.8906 28.1402 22.3202 28.0491C22.7499 27.9579 23.1406 27.8147 23.4921 27.6194C23.8437 27.4241 24.1594 27.1539 24.4394 26.8088C24.7193 26.4573 24.9472 26.0569 25.123 25.6077C25.2988 25.1519 25.4257 24.6474 25.5038 24.094C25.5885 23.5406 25.6308 22.9351 25.6308 22.2776C25.6308 20.956 25.4387 19.872 25.0546 19.0256C24.677 18.1728 24.1399 17.551 23.4433 17.1604C22.7532 16.7698 21.9264 16.5745 20.9628 16.5745C20.5201 16.5745 20.1002 16.5875 19.7031 16.6135V28.1467Z" fill="white"/>
<path d="M5.57813 23.7109L11.6914 26.1816V28.0957L3.70313 24.3945V22.9687L11.6914 19.2773V21.1914L5.57813 23.7109Z" fill="white"/>
<path d="M28.7285 31.2207H27.1758L33.1133 15.7812H34.6563L28.7285 31.2207Z" fill="white"/>
<path d="M42.6556 23.7109L36.5424 26.1816V28.0957L44.5306 24.3945V22.9687L36.5424 19.2773V21.1914L42.6556 23.7109Z" fill="white"/>
</g>
<defs>
<linearGradient id="paint0_linear" x1="24.0829" y1="0" x2="24.0829" y2="48.1658" gradientUnits="userSpaceOnUse">
<stop stop-color="#171562"/>
<stop offset="1" stop-color="#0F0D3A"/>
</linearGradient>
<clipPath id="clip0">
<rect width="48" height="48" fill="white"/>
</clipPath>
</defs>
</svg>
