<svg width="488" height="326" viewBox="0 0 488 326" fill="none" xmlns="http://www.w3.org/2000/svg">
<path d="M298.686 122.525C261.794 122.525 232.095 151.523 232.095 187.544V297.484C232.095 306.287 233.878 314.666 237.097 322.309H419.602C422.821 314.666 424.606 306.287 424.606 297.484V187.544C424.606 151.523 394.906 122.525 358.014 122.525H298.686Z" fill="url(#paint0_linear)"/>
<path d="M327.24 73.4869C328.754 79.541 330.368 83.7789 332.185 87.4114C334.001 91.0438 336.019 94.0708 337.33 98.7124C338.642 103.354 339.247 109.61 341.77 114.251C344.293 118.892 348.732 121.919 349.438 124.543C350.144 127.166 347.117 129.385 331.579 131C316.041 132.614 287.994 133.623 274.573 133.522C261.153 133.421 262.363 132.211 263.877 128.578C265.39 124.946 267.206 118.892 268.518 113.545C269.83 108.197 270.637 103.555 271.545 95.3822C272.453 87.2091 273.462 75.5048 282.039 67.6339C290.615 59.7631 306.759 55.7272 315.536 57.6449C324.314 59.5627 325.727 67.4328 327.24 73.4869Z" fill="black" stroke="black" stroke-width="0.264583"/>
<path d="M256.31 44.426C275.481 43.2152 294.651 42.0044 304.135 41.6009C313.619 41.1975 313.417 41.6011 313.922 43.9222C314.427 46.2433 315.637 50.4811 316.647 52.5996C317.656 54.718 318.463 54.718 319.875 54.0117C321.288 53.3053 323.305 51.8927 325.021 51.6913C326.737 51.4898 328.149 52.4988 329.057 54.4161C329.965 56.3334 330.368 59.1586 329.964 62.0845C329.561 65.0105 328.35 68.0375 326.736 70.7617C325.121 73.4859 323.103 75.9074 321.792 77.0175C320.481 78.1275 319.876 77.9257 319.976 82.1639C320.077 86.4022 320.884 95.0796 321.59 101.84C322.296 108.601 322.902 113.444 323.003 117.581C323.103 121.717 322.7 125.148 320.783 128.881C318.866 132.614 315.435 136.65 312.106 139.274C308.777 141.897 305.548 143.108 302.118 142.906C298.687 142.705 295.055 141.09 292.23 137.862C289.404 134.633 287.386 129.79 286.579 124.341C285.772 118.892 286.175 112.838 286.579 106.783" fill="#FFB380"/>
<path d="M256.31 44.426C275.481 43.2152 294.651 42.0044 304.135 41.6009C313.619 41.1975 313.417 41.6011 313.922 43.9222C314.427 46.2433 315.637 50.4811 316.647 52.5996C317.656 54.718 318.463 54.718 319.875 54.0117C321.288 53.3053 323.305 51.8927 325.021 51.6913C326.737 51.4898 328.149 52.4988 329.057 54.4161C329.965 56.3334 330.368 59.1586 329.964 62.0845C329.561 65.0105 328.35 68.0375 326.736 70.7617C325.121 73.4859 323.103 75.9074 321.792 77.0175C320.481 78.1275 319.876 77.9257 319.976 82.1639C320.077 86.4022 320.884 95.0796 321.59 101.84C322.296 108.601 322.902 113.444 323.003 117.581C323.103 121.717 322.7 125.148 320.783 128.881C318.866 132.614 315.435 136.65 312.106 139.274C308.777 141.897 305.548 143.108 302.118 142.906C298.687 142.705 295.055 141.09 292.23 137.862C289.404 134.633 287.386 129.79 286.579 124.341C285.772 118.892 286.175 112.838 286.579 106.783" stroke="#F69455" stroke-width="0.264583"/>
<path d="M256.31 44.4263C256.511 51.0866 256.713 57.7461 257.626 64.2213C258.539 70.6964 260.144 76.9175 262.534 82.7116C264.924 88.5056 269.427 96.0889 274.179 100.959C278.931 105.829 280.929 106.986 284.407 107.721C287.884 108.456 294.853 106.783 298.891 104.494C302.928 102.205 307.162 97.5006 310.794 93.4645" fill="#FFB380"/>
<path d="M256.31 44.4263C256.511 51.0866 256.713 57.7461 257.626 64.2213C258.539 70.6964 260.144 76.9175 262.534 82.7116C264.924 88.5056 269.427 96.0889 274.179 100.959C278.931 105.829 280.929 106.986 284.407 107.721C287.884 108.456 294.853 106.783 298.891 104.494C302.928 102.205 307.162 97.5006 310.794 93.4645" stroke="#F69455" stroke-width="0.264583"/>
<path d="M225.233 182.561C222.408 188.313 218.171 197.797 213.227 207.383C208.283 216.969 202.632 226.655 202.935 237.149C203.239 247.644 209.494 258.944 214.438 265.805C219.382 272.667 223.015 275.088 226.243 272.566C229.471 270.043 232.296 262.576 236.837 253.798C241.377 245.019 247.632 234.929 252.778 225.444C257.924 215.959 261.96 207.08 265.189 200.824C268.417 194.568 270.839 190.936 267.005 188.312C263.171 185.689 253.082 184.074 246.524 181.956C239.965 179.837 236.938 177.214 234.92 175.599C232.903 173.985 231.894 173.379 230.682 174.085C229.471 174.792 228.058 176.81 225.233 182.561Z" fill="#FFB380" stroke="#F69455" stroke-width="0.264583"/>
<path d="M357.61 132.11C354.785 134.027 352.161 138.265 350.446 144.219C348.731 150.172 347.924 157.841 348.227 167.426C348.53 177.012 349.942 188.515 354.785 206.072C359.629 223.629 367.902 247.24 372.139 258.843C376.377 270.446 376.579 270.043 373.855 269.74C371.131 269.437 365.481 269.235 359.023 269.538C352.566 269.841 345.301 270.648 336.119 273.473C326.938 276.298 315.839 281.141 306.859 284.976C297.879 288.81 291.018 291.635 285.268 292.745C279.517 293.855 274.875 293.25 270.436 291.636C265.996 290.021 261.759 287.398 257.017 285.683C252.274 283.967 247.028 283.16 240.974 284.169C234.92 285.178 228.059 288.003 220.794 291.534C213.529 295.066 205.861 299.304 201.926 302.533C197.991 305.762 197.789 307.982 216.759 308.89C235.728 309.798 273.866 309.394 301.31 308.587C328.755 307.78 345.503 306.569 357.207 305.358C368.911 304.147 375.57 302.936 382.633 300.111C389.696 297.286 397.162 292.846 401.198 288.709C405.234 284.573 405.839 280.739 405.334 271.355C404.83 261.971 403.216 247.038 401.601 233.92C399.987 220.803 398.373 209.502 396.456 199.513C394.539 189.524 392.319 180.846 390.2 173.985C388.081 167.124 386.064 162.079 383.44 156.529C380.817 150.979 377.588 144.925 374.662 140.586C371.737 136.248 369.113 133.624 366.288 132.11C363.463 130.596 360.436 130.193 357.61 132.11V132.11Z" fill="#FFB380" stroke="#F69455" stroke-width="0.264583"/>
<path d="M88.1436 185.644C110.416 185.286 153.412 185 175.192 185C196.972 185 197.534 185.287 199.22 186.003C200.907 186.719 203.717 187.865 206.246 192.164C208.775 196.462 211.023 203.912 216.503 223.54C221.983 243.168 230.695 274.973 235.051 291.019C239.407 307.065 239.407 307.352 238.564 307.638C237.721 307.924 236.035 308.211 212.569 307.781C189.102 307.351 143.858 306.205 121.094 305.919C98.3299 305.632 98.0489 306.205 95.8008 298.612C93.5527 291.019 89.3373 275.26 83.9977 256.492C78.6581 237.723 72.1947 215.947 68.4711 203.841C64.7475 191.734 63.7639 189.299 64.045 187.866C64.3261 186.432 65.8717 186.003 88.1436 185.644V185.644Z" fill="#ABCDFB" stroke="#ABCDFB"/>
<path d="M88.6113 189.368C110.158 189.297 151.823 189.582 173.94 190.01C196.057 190.439 198.626 191.009 200.766 192.722C202.906 194.435 204.618 197.289 210.326 216.41C216.033 235.532 225.736 270.92 230.73 288.9C235.725 306.88 236.01 307.451 213.179 307.307C190.349 307.164 144.404 306.308 121.287 306.451C98.1708 306.594 97.8854 307.736 92.606 289.756C87.3266 271.776 77.0531 234.675 71.4882 214.912C65.9233 195.148 65.0672 192.723 65.3526 191.295C65.638 189.867 67.0649 189.439 88.6113 189.368Z" fill="url(#paint1_linear)"/>
<path d="M324.549 124.313C323.007 124.333 323.141 124.656 323.051 125.369C322.908 126.511 322.194 128.651 319.84 131.504C317.485 134.358 313.49 137.925 309.781 140.208C306.071 142.492 302.647 143.49 299.508 142.492C296.369 141.494 293.514 138.497 292.087 136.998C291.355 136.229 290.089 133.435 289.482 133.438C288.184 131.729 288.707 130.234 287.084 129.184C285.369 128.073 282.341 129.991 277.296 129.991C272.252 129.991 264.583 129.588 258.529 131.202C252.475 132.817 248.036 136.448 243.294 142.906C238.552 149.364 233.507 158.647 229.875 166.316C226.242 173.984 224.023 180.038 222.711 183.671C221.399 187.303 220.996 188.514 223.317 189.927C225.638 191.339 230.683 192.953 237.141 195.779C240.379 197.195 243.969 198.917 247.243 200.522C246.855 204.307 246.569 208.175 246.523 212.024C246.422 220.399 247.431 228.673 248.137 233.516C248.843 238.36 249.248 239.774 250.156 243.91C251.064 248.047 252.475 254.908 253.787 261.568C255.099 268.227 256.311 274.685 257.017 278.116C257.724 281.547 257.924 285.582 258.933 286.187C259.943 286.792 259.64 286.692 263.272 288.105C266.904 289.518 273.261 292.14 277.599 293.048C281.938 293.956 287.891 291.635 291.12 291.131C294.349 290.626 296.063 288.608 301.108 286.792C306.153 284.976 313.015 282.15 319.573 279.224C326.132 276.297 332.386 273.271 338.238 271.556C344.091 269.841 349.54 269.438 352.062 268.732C354.584 268.026 354.181 267.016 353.878 264.797C353.575 262.577 353.373 259.147 354.079 255.11C354.785 251.074 356.4 246.432 357.461 241.198C358.522 235.963 359.031 230.136 359.04 225.878C359.05 221.621 358.563 218.934 357.994 215.29C357.425 211.647 356.775 207.048 356.967 205.15C357.001 204.812 357.063 204.562 357.139 204.377C356.817 204.335 356.491 204.275 356.446 204.275C356.407 204.275 356.562 204.316 357.178 204.292C357.498 203.647 358.018 204.003 358.044 204.233C359.282 204.126 361.398 203.856 365.014 203.2C372.544 201.832 386.467 198.805 393.631 197.393C400.795 195.981 401.199 196.182 400.997 194.77C400.795 193.358 399.987 190.331 398.675 185.589C397.363 180.846 395.547 174.388 393.126 167.729C390.704 161.069 387.678 154.209 385.838 150.088C383.999 145.968 383.348 144.587 381.31 141.685C379.272 138.783 375.846 134.36 372.778 131.72C369.711 129.08 367 128.223 358.652 127.224C350.305 126.225 336.322 125.083 329.544 124.584C327.002 124.397 325.475 124.301 324.549 124.313ZM358.044 204.233C357.691 204.264 357.397 204.283 357.178 204.292C357.164 204.319 357.151 204.346 357.139 204.377C357.54 204.429 357.954 204.454 358.039 204.312C358.052 204.29 358.047 204.261 358.047 204.233H358.044Z" fill="#000036"/>
<path d="M188.004 298.602H352.833L363.756 306.308L188.004 307.164V298.602Z" fill="#548CD8"/>
<path d="M488 305.452H0V326H488V305.452Z" fill="#000123"/>
<path d="M258.833 55.3242C260.548 52.7002 264.785 48.866 267.711 46.2426C270.637 43.6191 272.252 42.2065 274.169 40.8947C276.086 39.5829 278.306 38.3721 280.828 37.5649C283.351 36.7577 286.176 36.3541 289.304 37.1617C292.432 37.9692 295.862 39.9872 298.788 41.9044C301.714 43.8217 304.136 45.6378 306.053 47.656C307.97 49.6742 309.382 51.894 306.557 53.1044C303.732 54.3147 296.669 54.5165 289.506 54.5165C282.342 54.5166 275.077 54.3148 270.335 54.9201C265.592 55.5254 263.373 56.9381 261.859 58.048C260.346 59.158 259.538 59.9652 258.732 59.663C257.925 59.3607 257.118 57.9481 258.833 55.3242H258.833Z" fill="#FFB380"/>
<path d="M256.31 60.7725C256.537 59.9718 256.739 59.1641 256.915 58.3508C257.536 55.4886 257.84 52.5673 258.371 49.6869C258.902 46.8066 259.676 43.9287 261.153 41.3994C263.345 37.6437 266.981 34.8804 270.953 33.1111C274.926 31.3418 279.244 30.4936 283.552 29.8965C289.637 29.0532 296.051 28.7254 301.713 31.1074C305.968 32.8972 309.528 36.1481 312.047 40.0165C314.565 43.885 316.079 48.3505 316.848 52.9022C317.219 55.1022 317.422 57.3307 317.453 59.5617" stroke="black" stroke-width="0.264583"/>
<path d="M267.66 7.49683C265.693 7.49635 261.758 9.91796 258.731 14.2571C255.704 18.5963 253.585 24.852 252.324 30.9063C251.063 36.9606 250.659 42.8128 251.063 48.7662C251.467 54.7196 252.677 60.7735 254.438 65.4533C256.199 70.133 258.51 73.4381 258.812 71.9246C259.115 70.411 257.409 64.0788 257.667 57.6835C257.924 51.2881 260.143 44.8306 262.464 37.2629C264.785 29.6952 267.206 21.0178 268.417 15.4684C269.628 9.91888 269.628 7.49731 267.66 7.49683Z" fill="black" stroke="black" stroke-width="0.264583"/>
<path d="M266.501 7.29489C267.409 6.08355 270.032 4.67089 273.261 3.46006C276.49 2.24923 280.324 1.24024 284.965 1.03859C289.607 0.836817 295.055 1.44231 300.336 2.48099C305.618 3.51964 310.732 4.99134 315.385 8.9442C320.038 12.8971 324.231 19.3301 327.425 25.7584C330.619 32.1867 332.814 38.6096 333.71 45.9581C334.606 53.3066 334.202 61.5804 333.193 67.2306C332.184 72.881 330.57 75.9079 329.763 78.6326C328.956 81.3572 328.955 83.7788 328.3 83.123C327.644 82.4672 326.333 78.7339 326.736 74.4957C327.139 70.2574 329.258 65.5152 329.914 62.1857C330.57 58.8562 329.763 56.9391 329.057 55.476C328.351 54.0129 327.745 53.0039 326.535 52.3476C325.324 51.6914 323.508 51.3887 321.994 51.9436C320.48 52.4985 319.269 53.9111 318.462 55.0212C317.655 56.1313 317.251 56.9385 316.949 55.9297C316.646 54.9209 316.444 52.0957 315.512 49.5436C314.58 46.9915 312.916 44.7126 311.231 42.6599C309.545 40.6072 307.837 38.7809 306.045 36.8428C304.254 34.9047 302.378 32.8551 299.07 31.5272C295.761 30.1993 291.019 29.5939 286.882 29.5433C282.745 29.4927 279.214 29.9973 274.607 32.9847C270 35.9722 264.318 41.442 261.392 42.7542C258.466 44.0664 258.296 41.2199 258.11 38.0811C257.924 34.9424 257.722 31.5118 258.63 27.6772C259.538 23.8427 261.556 19.6048 263.17 16.6785C264.785 13.7523 265.996 12.1379 266.198 10.8265C266.4 9.51522 265.593 8.50623 266.501 7.29489Z" fill="black" stroke="black" stroke-width="0.264583"/>
<path d="M258.983 49.8251C259.841 46.7476 260.951 43.3169 262.464 40.9454C263.978 38.5739 265.895 37.2621 268.165 35.8495C270.436 34.4369 273.059 32.9234 276.893 31.8639C280.728 30.8045 285.772 30.1991 289.707 30.0983C293.643 29.9976 296.468 30.4011 299.949 31.8644C303.43 33.3278 307.566 35.8502 310.139 38.4234C312.712 40.9967 313.721 43.62 314.729 47.303C315.738 50.9859 316.747 55.7282 311.652 58.1998C306.557 60.6715 295.358 60.8733 287.74 60.4698C280.122 60.0663 276.087 59.0573 273.514 58.4518C270.941 57.8464 269.831 57.6446 268.368 57.3419C266.905 57.0392 265.089 56.6356 263.625 56.8373C262.162 57.0391 261.052 57.8461 259.993 58.1994C258.934 58.5526 257.925 58.4518 257.723 57.0393C257.52 55.6269 258.126 52.9027 258.983 49.8251Z" fill="#FFB380"/>
<path d="M286.093 109.458C286.022 111.028 285.879 114.168 285.844 116.558C285.808 118.948 285.879 120.589 286.307 120.411C286.735 120.232 287.52 118.234 288.412 116.593C289.304 114.952 290.303 113.668 291.23 112.597C292.158 111.527 293.014 110.671 294.334 109.672C295.654 108.673 297.437 107.531 298.829 106.319C300.22 105.106 301.218 103.822 302.253 102.68C303.288 101.538 304.358 100.539 303.716 100.932C303.073 101.324 300.719 103.108 299.114 104.178C297.509 105.248 296.653 105.605 295.797 105.926C294.941 106.247 294.084 106.533 293.193 106.747C292.301 106.961 291.373 107.103 290.196 107.282C289.019 107.46 287.592 107.674 286.878 107.781C286.165 107.888 286.165 107.888 286.093 109.458H286.093Z" fill="url(#paint2_linear)"/>
<path d="M239.587 197.041C240.47 197.192 243.093 198.453 244.758 199.235C246.423 200.017 247.129 200.32 247.229 201.783C247.33 203.246 246.825 205.87 246.573 208.039C246.321 210.209 246.321 211.924 246.22 213.286C246.119 214.648 245.917 215.657 245.917 216.263C245.918 216.868 246.12 217.07 245.817 215.153C245.514 213.236 244.707 209.2 244.101 206.728C243.496 204.256 243.093 203.348 242.512 202.288C241.932 201.229 241.176 200.018 240.368 198.933C239.561 197.848 238.704 196.89 239.587 197.041Z" fill="url(#paint3_linear)"/>
<path d="M284.158 25.6083C285.166 27.6768 282.543 31.2083 280.39 33.1513C278.237 35.0943 276.553 35.4489 275.655 36.2973C274.758 37.1457 274.647 38.4869 273.589 39.7982C272.531 41.1095 270.526 42.3916 268.649 44.3187C266.771 46.2458 265.021 48.8172 263.592 50.2541C262.162 51.6911 261.052 51.9938 260.093 53.4068C259.134 54.8197 258.327 57.3422 257.722 58.7041C257.117 60.0659 256.714 60.2677 256.663 60.8737C256.613 61.4797 256.915 62.4886 256.36 59.7642C255.805 57.0398 254.393 50.5822 254.695 44.7801C254.998 38.9779 257.016 33.8321 260.497 30.1993C263.978 26.5665 268.922 24.4476 273.715 23.691C278.508 22.9344 283.149 23.5399 284.158 25.6083Z" fill="black" stroke="black" stroke-width="0.264583"/>
<path d="M280.91 31.4397C283.169 32.3835 287.685 34.2711 290.707 35.4045C293.73 36.5378 295.26 36.9168 295.195 36.8543C295.13 36.7919 293.472 36.2882 294.603 37.4174C295.733 38.5466 299.651 41.3068 302.781 43.1491C305.911 44.9913 308.252 45.9159 309.888 46.358C311.523 46.8001 312.453 46.7597 313.679 47.7983C314.905 48.8368 316.427 50.9538 317.374 52.0474C318.32 53.1411 318.692 53.2119 318.952 53.7621C319.211 54.3123 319.359 55.3409 318.767 52.6398C318.176 49.9388 316.845 43.5083 314.49 38.1874C312.136 32.8665 308.757 28.6558 304.855 26.2811C300.953 23.9063 296.529 23.3679 292.431 23.663C288.334 23.958 284.563 25.0866 282.321 26.3642C280.079 27.6418 279.365 29.0694 279.009 29.7826C278.652 30.4958 278.652 30.4958 280.91 31.4397Z" fill="black" stroke="black" stroke-width="0.235795"/>
<path d="M291.248 178.006H298.174C301.561 178.006 304.068 178.656 305.697 179.957C308.123 181.879 309.336 184.891 309.336 188.992C309.336 193.246 308.275 196.322 306.154 198.221C305.193 199.076 304.115 199.68 302.92 200.031C301.736 200.383 300.16 200.559 298.191 200.559H290.721L293.129 198.713V180.027L291.248 178.006ZM296.574 179.482V199.205H297.541V180.643C298.15 180.549 298.707 180.502 299.211 180.502C300.172 180.502 300.928 180.602 301.479 180.801C302.041 180.988 302.604 181.34 303.166 181.855C301.924 181.27 300.594 180.977 299.176 180.977C298.871 180.977 298.473 181 297.98 181.047V199.205C299.293 199.205 300.289 199.1 300.969 198.889C301.648 198.666 302.293 198.244 302.902 197.623C304.602 195.9 305.451 193.006 305.451 188.939C305.451 184.967 304.531 182.254 302.691 180.801C301.578 179.922 299.814 179.482 297.4 179.482H296.574ZM291.811 202L291.547 201.525H297.98C301.145 201.525 303.547 201.086 305.188 200.207C308.715 198.332 310.479 194.705 310.479 189.326C310.479 185.729 309.688 183.057 308.105 181.311L307.402 180.537C307.379 180.514 307.309 180.432 307.191 180.291C309.676 181.85 310.918 184.832 310.918 189.238C310.918 193.867 309.688 197.277 307.227 199.469C305.34 201.156 302.258 202 297.98 202H291.811Z" fill="#171562"/>
<defs>
<linearGradient id="paint0_linear" x1="382.229" y1="120.708" x2="377.386" y2="354.397" gradientUnits="userSpaceOnUse">
<stop offset="0.0678083" stop-color="#4545D3"/>
<stop offset="0.598958" stop-color="#191993"/>
</linearGradient>
<linearGradient id="paint1_linear" x1="149.39" y1="189.357" x2="149.39" y2="307.322" gradientUnits="userSpaceOnUse">
<stop offset="0.015625" stop-color="#548CD8" stop-opacity="0.36"/>
<stop offset="0.651042" stop-color="#548CD8"/>
</linearGradient>
<linearGradient id="paint2_linear" x1="286.906" y1="108.494" x2="300.271" y2="117.911" gradientUnits="userSpaceOnUse">
<stop stop-color="#F69455"/>
<stop offset="1" stop-color="#F69455" stop-opacity="0"/>
</linearGradient>
<linearGradient id="paint3_linear" x1="245.873" y1="200.499" x2="238.161" y2="209.731" gradientUnits="userSpaceOnUse">
<stop stop-color="#F69455"/>
<stop offset="1" stop-color="#F69455" stop-opacity="0"/>
</linearGradient>
</defs>
</svg>
